# xmcd
#
# Track frame offsets:
#	150
#	19662
#	34042
#	52865
#	71017
#	84137
#	96055
#	105837
#	121012
#	140137
#	155352
#	168922
#	176827
#	190642
#	207332
#	223620
#	234397
#	254795
#	264160
#	276112
#
# Disc length: 3914 seconds
#
# Revision: 1
# Processed by: cddbd v1.5.1PL0 Copyright (c) Steve Scherf et al.
# Submitted via: CDex 1.50Beta5
#
DISCID=080f4814
DTITLE=Various Artist - Tvこどものうた　おさかな天国　Disc★2
DYEAR=2002
DGENRE=Pop
TTITLE0=Various Artists/Alive A Life
TTITLE1=Various Artists/Dance! おジャ魔女
TTITLE2=Various Artists/めざせポケモンマスター
TTITLE3=Various Artists/ウィーアー！
TTITLE4=Various Artists/ムーンライト伝説
TTITLE5=Various Artists/ぜったいに元気！
TTITLE6=Various Artists/うたっておどろんぱ！
TTITLE7=Various Artists/すてきなきみ
TTITLE8=三石琴乃、堀江真知子/カブト虫は８４０円
TTITLE9=Various Artists/おどるポンポコリン
TTITLE10=Various Artists/ドラえもんのうた
TTITLE11=Various Artists/ワールドスープカップ
TTITLE12=Various Artists/慎吾ママのおはロック
TTITLE13=Various Artists/プリン賛歌
TTITLE14=Various Artists/いつも何度でも
TTITLE15=Various Artists/オカシな国のアリス
TTITLE16=Various Artists/Waになっておどろう〜イレ　アイエ〜
TTITLE17=Various Artists/かっぱなにさま？かっぱさま！
TTITLE18=Various Artists/虹のむこうに
TTITLE19=Various Artists/勇気１００％
EXTD=
EXTT0=
EXTT1=
EXTT2=
EXTT3=
EXTT4=
EXTT5=
EXTT6=
EXTT7=
EXTT8=
EXTT9=
EXTT10=
EXTT11=
EXTT12=
EXTT13=
EXTT14=
EXTT15=
EXTT16=
EXTT17=
EXTT18=
EXTT19=
PLAYORDER=
